<?xml version="1.0" encoding="UTF-8"?>
<svg xmlns="http://www.w3.org/2000/svg" width="1200" height="1200" viewBox="0 0 300 300" role="img" aria-labelledby="title desc">
<title id="title">Vector glass impact icon with chrome sphere</title>
<desc id="desc">A scalable SVG remake of a turquoise shattered glass icon with a metallic sphere at the center.</desc>
<defs>

<linearGradient id="bg" x1="0" y1="0" x2="1" y2="1">
  <stop offset="0" stop-color="#f4efff"/>
  <stop offset="0.26" stop-color="#bb9ff7"/>
  <stop offset="0.55" stop-color="#6931c8"/>
  <stop offset="1" stop-color="#31076c"/>
</linearGradient>
<radialGradient id="centerDepth" cx="48%" cy="38%" r="55%">
  <stop offset="0" stop-color="#130324" stop-opacity="0.86"/>
  <stop offset="0.48" stop-color="#240648" stop-opacity="0.66"/>
  <stop offset="1" stop-color="#5613ce" stop-opacity="0"/>
</radialGradient>
<linearGradient id="topA" x1="60" y1="20" x2="240" y2="260" gradientUnits="userSpaceOnUse">
  <stop offset="0" stop-color="#efe9ff"/>
  <stop offset="0.32" stop-color="#a073f2"/>
  <stop offset="0.72" stop-color="#5f24bd"/>
  <stop offset="1" stop-color="#37087e"/>
</linearGradient>
<linearGradient id="topB" x1="25" y1="55" x2="260" y2="250" gradientUnits="userSpaceOnUse">
  <stop offset="0" stop-color="#e3d8ff"/>
  <stop offset="0.40" stop-color="#835bdf"/>
  <stop offset="1" stop-color="#3c0b89"/>
</linearGradient>
<linearGradient id="topC" x1="150" y1="0" x2="160" y2="300" gradientUnits="userSpaceOnUse">
  <stop offset="0" stop-color="#cdb8ff"/>
  <stop offset="0.48" stop-color="#6b31d0"/>
  <stop offset="1" stop-color="#2d0669"/>
</linearGradient>
<linearGradient id="chunk1" x1="45" y1="0" x2="240" y2="300" gradientUnits="userSpaceOnUse">
  <stop offset="0" stop-color="#d2bfff"/>
  <stop offset="0.44" stop-color="#7c47dc"/>
  <stop offset="1" stop-color="#30027b"/>
</linearGradient>
<linearGradient id="chunk2" x1="280" y1="15" x2="60" y2="275" gradientUnits="userSpaceOnUse">
  <stop offset="0" stop-color="#f3eeff"/>
  <stop offset="0.38" stop-color="#9c72ed"/>
  <stop offset="1" stop-color="#32067b"/>
</linearGradient>
<linearGradient id="chunk3" x1="0" y1="220" x2="290" y2="70" gradientUnits="userSpaceOnUse">
  <stop offset="0" stop-color="#34067d"/>
  <stop offset="0.46" stop-color="#824ee1"/>
  <stop offset="1" stop-color="#ece4ff"/>
</linearGradient>
<linearGradient id="sideFace" x1="80" y1="90" x2="220" y2="275" gradientUnits="userSpaceOnUse">
  <stop offset="0" stop-color="#400d95"/>
  <stop offset="0.52" stop-color="#30066d"/>
  <stop offset="1" stop-color="#1c023d"/>
</linearGradient>
<linearGradient id="rim" x1="92" y1="45" x2="215" y2="184" gradientUnits="userSpaceOnUse">
  <stop offset="0" stop-color="#f8f5ff"/>
  <stop offset="0.18" stop-color="#d9d8e2"/>
  <stop offset="0.45" stop-color="#8b9693"/>
  <stop offset="0.78" stop-color="#403c48"/>
  <stop offset="1" stop-color="#21182c"/>
</linearGradient>
<radialGradient id="orb" cx="35%" cy="23%" r="78%">
  <stop offset="0" stop-color="#ffffff"/>
  <stop offset="0.28" stop-color="#f0f3f1"/>
  <stop offset="0.52" stop-color="#c7c9c7"/>
  <stop offset="0.74" stop-color="#8d9291"/>
  <stop offset="1" stop-color="#4c5253"/>
</radialGradient>
<linearGradient id="orbLower" x1="154" y1="90" x2="154" y2="174" gradientUnits="userSpaceOnUse">
  <stop offset="0" stop-color="#ffffff" stop-opacity="0"/>
  <stop offset="0.58" stop-color="#767b7b" stop-opacity="0.38"/>
  <stop offset="1" stop-color="#28242c" stop-opacity="0.62"/>
</linearGradient>
<linearGradient id="rimLight" x1="96" y1="61" x2="210" y2="172" gradientUnits="userSpaceOnUse">
  <stop offset="0" stop-color="#ffffff" stop-opacity="0.7"/>
  <stop offset="0.34" stop-color="#ffffff" stop-opacity="0.2"/>
  <stop offset="1" stop-color="#000000" stop-opacity="0.4"/>
</linearGradient>
<filter id="deepShadow" x="-30%" y="-30%" width="160%" height="170%">
  <feDropShadow dx="7" dy="13" stdDeviation="4" flood-color="#180135" flood-opacity="0.58"/>
</filter>
<filter id="smallShadow" x="-20%" y="-20%" width="150%" height="160%">
  <feDropShadow dx="4" dy="7" stdDeviation="2" flood-color="#1e0044" flood-opacity="0.44"/>
</filter>
<filter id="softBlur" x="-20%" y="-20%" width="140%" height="140%">
  <feGaussianBlur stdDeviation="2.2"/>
</filter>
<clipPath id="orbClip"><circle cx="154" cy="113" r="58"/></clipPath>
<clipPath id="iconClip"><rect x="0" y="0" width="300" height="300" rx="0"/></clipPath>

</defs>
<g clip-path="url(#iconClip)">
<rect width="300" height="300" fill="url(#bg)"/>
<polygon points="0.0,0.0 72.0,0.0 62.0,52.0 0.0,28.0" fill="#ffffff" opacity="0.18"/>
<polygon points="72.0,0.0 129.0,0.0 121.0,50.0 62.0,52.0" fill="#b08ff5" opacity="0.16"/>
<polygon points="128.0,0.0 188.0,0.0 174.0,62.0 121.0,50.0" fill="#4408a5" opacity="0.12"/>
<polygon points="188.0,0.0 300.0,0.0 300.0,44.0 226.0,59.0 174.0,62.0" fill="#ffffff" opacity="0.18"/>
<polygon points="0.0,28.0 62.0,52.0 36.0,93.0 0.0,82.0" fill="#b08ff5" opacity="0.16"/>
<polygon points="226.0,59.0 300.0,44.0 300.0,103.0 253.0,95.0" fill="#4408a5" opacity="0.12"/>
<polygon points="0.0,83.0 36.0,93.0 60.0,143.0 0.0,145.0" fill="#ffffff" opacity="0.18"/>
<polygon points="253.0,95.0 300.0,103.0 300.0,175.0 250.0,152.0" fill="#b08ff5" opacity="0.16"/>
<polygon points="0.0,145.0 61.0,145.0 42.0,217.0 0.0,244.0" fill="#4408a5" opacity="0.12"/>
<polygon points="252.0,153.0 300.0,176.0 300.0,300.0 237.0,238.0" fill="#ffffff" opacity="0.18"/>
<polygon points="42.0,218.0 102.0,218.0 82.0,300.0 0.0,300.0" fill="#b08ff5" opacity="0.16"/>
<polygon points="102.0,218.0 160.0,238.0 150.0,300.0 82.0,300.0" fill="#4408a5" opacity="0.12"/>
<polygon points="161.0,238.0 237.0,238.0 300.0,300.0 150.0,300.0" fill="#ffffff" opacity="0.18"/>
<path d="M-35 22 L86 -6 L66 12 L-18 54 Z" fill="#ffffff" opacity="0.45"/>
<path d="M-40 291 L49 190 L69 199 L7 319 Z" fill="#ffffff" opacity="0.32"/>
<path d="M254 -4 L227 66 L211 62 L226 -19 Z" fill="#ffffff" opacity="0.18"/>
<circle cx="154" cy="113" r="98" fill="url(#centerDepth)"/>
<ellipse cx="157" cy="140" rx="88" ry="61" fill="#190335" opacity="0.42" filter="url(#softBlur)"/>
<g opacity="0.98">
<polygon points="-45.5,97.0 -14.9,42.9 -9.2,53.9 -39.9,108.1" fill="url(#sideFace)" opacity="0.74"/>
<polygon points="-21.7,46.3 13.1,5.5 19.0,19.8 -15.7,60.6" fill="url(#sideFace)" opacity="0.74"/>
<polygon points="31.6,21.7 53.7,-15.2 59.7,-1.9 37.7,35.0" fill="url(#sideFace)" opacity="0.74"/>
<polygon points="42.1,-44.2 84.2,-77.5 88.7,-61.3 46.7,-28.1" fill="url(#sideFace)" opacity="0.74"/>
<polygon points="99.1,-94.9 139.4,-82.9 144.8,-66.7 104.5,-78.7" fill="url(#sideFace)" opacity="0.74"/>
<polygon points="148.9,-77.2 194.3,-68.0 200.9,-51.5 155.5,-60.7" fill="url(#sideFace)" opacity="0.74"/>
<polygon points="197.9,-65.9 237.1,-36.4 241.7,-18.2 202.5,-47.7" fill="url(#sideFace)" opacity="0.74"/>
<polygon points="257.8,-26.4 305.0,-11.3 311.7,4.7 264.6,-10.3" fill="url(#sideFace)" opacity="0.74"/>
<polygon points="292.6,-12.3 329.1,52.4 334.3,65.5 297.8,0.8" fill="url(#sideFace)" opacity="0.74"/>
<polygon points="333.7,51.0 345.1,102.8 352.0,113.5 340.6,61.8" fill="url(#sideFace)" opacity="0.74"/>
<polygon points="328.2,118.0 318.9,155.9 325.2,164.0 334.5,126.1" fill="url(#sideFace)" opacity="0.74"/>
<polygon points="334.4,169.9 289.4,219.8 299.0,228.4 344.1,178.5" fill="url(#sideFace)" opacity="0.74"/>
<polygon points="279.7,209.2 253.0,237.9 262.6,247.5 289.2,218.8" fill="url(#sideFace)" opacity="0.74"/>
<polygon points="291.7,257.3 216.3,311.7 228.9,322.0 304.3,267.6" fill="url(#sideFace)" opacity="0.74"/>
<polygon points="204.6,293.9 159.0,307.3 171.6,317.4 217.2,304.0" fill="url(#sideFace)" opacity="0.74"/>
<polygon points="153.5,294.3 97.3,270.9 111.0,279.6 167.3,303.1" fill="url(#sideFace)" opacity="0.74"/>
<polygon points="95.4,290.1 28.8,259.4 40.6,267.6 107.1,298.3" fill="url(#sideFace)" opacity="0.74"/>
<polygon points="19.9,265.2 -41.5,198.8 -31.9,207.1 29.6,273.5" fill="url(#sideFace)" opacity="0.74"/>
<polygon points="-27.0,193.7 -32.6,117.1 -24.5,125.2 -18.9,201.9" fill="url(#sideFace)" opacity="0.74"/>
<polygon points="-5.2,115.1 -2.0,71.7 4.8,81.2 1.6,124.7" fill="url(#sideFace)" opacity="0.74"/>
</g>
<g filter="url(#smallShadow)">
<polygon points="80.4,105.3 86.3,85.7 -22.0,59.2 -26.3,97.2" fill="url(#topA)" opacity="0.96"/>
<polygon points="80.4,105.3 83.1,96.4 -24.2,79.0 -26.3,97.2" fill="#ffffff" opacity="0.16"/>
<polyline points="80.4,105.3 86.3,85.7 -22.0,59.2" fill="none" stroke="#efe9ff" stroke-width="0.65" opacity="0.36"/>
<polygon points="80.7,86.3 94.2,62.9 17.0,-15.7 -3.1,53.3" fill="url(#topB)" opacity="0.96"/>
<polygon points="94.2,62.9 17.0,-15.7 7.0,18.8" fill="#210249" opacity="0.16"/>
<polyline points="80.7,86.3 94.2,62.9 17.0,-15.7" fill="none" stroke="#efe9ff" stroke-width="0.65" opacity="0.36"/>
<polygon points="96.5,66.4 108.9,53.1 56.3,-16.3 39.1,19.7" fill="url(#topC)" opacity="0.96"/>
<polygon points="96.5,66.4 102.1,60.4 47.4,2.4 39.1,19.7" fill="#ffffff" opacity="0.16"/>
<polyline points="96.5,66.4 108.9,53.1 56.3,-16.3" fill="none" stroke="#efe9ff" stroke-width="0.65" opacity="0.36"/>
<polygon points="111.7,54.8 129.7,46.3 81.8,-56.2 48.4,-27.8" fill="url(#topA)" opacity="0.96"/>
<polygon points="129.7,46.3 81.8,-56.2 65.1,-42.0" fill="#210249" opacity="0.16"/>
<polyline points="111.7,54.8 129.7,46.3 81.8,-56.2" fill="none" stroke="#efe9ff" stroke-width="0.65" opacity="0.36"/>
<polygon points="132.9,44.1 147.7,41.3 151.6,-106.0 102.5,-74.1" fill="url(#topB)" opacity="0.96"/>
<polygon points="132.9,44.1 139.6,42.9 126.1,-89.4 102.5,-74.1" fill="#ffffff" opacity="0.16"/>
<polyline points="132.9,44.1 147.7,41.3 151.6,-106.0" fill="none" stroke="#efe9ff" stroke-width="0.65" opacity="0.36"/>
<polygon points="152.8,43.0 170.0,43.8 204.0,-77.6 151.8,-65.0" fill="url(#topA)" opacity="0.96"/>
<polygon points="170.0,43.8 204.0,-77.6 177.9,-71.3" fill="#210249" opacity="0.16"/>
<polyline points="152.8,43.0 170.0,43.8 204.0,-77.6" fill="none" stroke="#efe9ff" stroke-width="0.65" opacity="0.36"/>
<polygon points="172.9,42.5 191.1,51.3 241.9,-40.7 194.3,-46.0" fill="url(#topC)" opacity="0.96"/>
<polygon points="172.9,42.5 181.1,46.4 217.1,-43.4 194.3,-46.0" fill="#ffffff" opacity="0.16"/>
<polyline points="172.9,42.5 191.1,51.3 241.9,-40.7" fill="none" stroke="#efe9ff" stroke-width="0.65" opacity="0.36"/>
<polygon points="194.8,52.5 208.2,64.2 278.1,-16.0 245.5,-32.7" fill="url(#topB)" opacity="0.96"/>
<polygon points="208.2,64.2 278.1,-16.0 261.8,-24.3" fill="#210249" opacity="0.16"/>
<polyline points="194.8,52.5 208.2,64.2 278.1,-16.0" fill="none" stroke="#efe9ff" stroke-width="0.65" opacity="0.36"/>
<polygon points="211.5,64.8 224.5,84.5 328.9,55.8 276.8,10.4" fill="url(#topA)" opacity="0.96"/>
<polygon points="211.5,64.8 217.3,73.7 301.8,32.2 276.8,10.4" fill="#ffffff" opacity="0.16"/>
<polyline points="211.5,64.8 224.5,84.5 328.9,55.8" fill="none" stroke="#efe9ff" stroke-width="0.65" opacity="0.36"/>
<polygon points="225.4,87.0 228.8,107.8 346.7,101.7 317.8,51.3" fill="url(#topB)" opacity="0.96"/>
<polygon points="228.8,107.8 346.7,101.7 332.2,76.5" fill="#210249" opacity="0.16"/>
<polyline points="225.4,87.0 228.8,107.8 346.7,101.7" fill="none" stroke="#efe9ff" stroke-width="0.65" opacity="0.36"/>
<polygon points="230.0,113.0 227.1,133.9 315.3,152.0 307.9,108.7" fill="url(#topA)" opacity="0.96"/>
<polygon points="230.0,113.0 228.7,122.4 311.5,129.5 307.9,108.7" fill="#ffffff" opacity="0.16"/>
<polyline points="230.0,113.0 227.1,133.9 315.3,152.0" fill="none" stroke="#efe9ff" stroke-width="0.65" opacity="0.36"/>
<polygon points="225.3,136.2 215.5,157.7 293.9,219.8 310.9,178.4" fill="url(#topC)" opacity="0.96"/>
<polygon points="215.5,157.7 293.9,219.8 302.4,199.1" fill="#210249" opacity="0.16"/>
<polyline points="225.3,136.2 215.5,157.7 293.9,219.8" fill="none" stroke="#efe9ff" stroke-width="0.65" opacity="0.36"/>
<polygon points="214.7,158.7 199.1,172.9 252.5,256.4 275.4,202.8" fill="url(#topB)" opacity="0.96"/>
<polygon points="214.7,158.7 207.7,165.1 264.4,228.5 275.4,202.8" fill="#ffffff" opacity="0.16"/>
<polyline points="214.7,158.7 199.1,172.9 252.5,256.4" fill="none" stroke="#efe9ff" stroke-width="0.65" opacity="0.36"/>
<polygon points="202.0,174.5 178.1,187.2 219.7,310.4 275.7,260.2" fill="url(#topA)" opacity="0.96"/>
<polygon points="178.1,187.2 219.7,310.4 247.7,285.3" fill="#210249" opacity="0.16"/>
<polyline points="202.0,174.5 178.1,187.2 219.7,310.4" fill="none" stroke="#efe9ff" stroke-width="0.65" opacity="0.36"/>
<polygon points="175.8,188.9 154.0,193.0 166.0,305.6 211.6,285.7" fill="url(#topC)" opacity="0.96"/>
<polygon points="175.8,188.9 166.0,190.8 189.7,295.2 211.6,285.7" fill="#ffffff" opacity="0.16"/>
<polyline points="175.8,188.9 154.0,193.0 166.0,305.6" fill="none" stroke="#efe9ff" stroke-width="0.65" opacity="0.36"/>
<polygon points="151.2,193.0 127.0,187.2 96.0,270.7 137.5,275.2" fill="url(#topA)" opacity="0.96"/>
<polygon points="127.0,187.2 96.0,270.7 116.8,272.9" fill="#210249" opacity="0.16"/>
<polyline points="151.2,193.0 127.0,187.2 96.0,270.7" fill="none" stroke="#efe9ff" stroke-width="0.65" opacity="0.36"/>
<polygon points="124.0,187.2 100.5,172.5 17.2,256.1 92.9,278.1" fill="url(#topB)" opacity="0.96"/>
<polygon points="124.0,187.2 113.4,180.5 56.6,267.5 92.9,278.1" fill="#ffffff" opacity="0.16"/>
<polyline points="124.0,187.2 100.5,172.5 17.2,256.1" fill="none" stroke="#efe9ff" stroke-width="0.65" opacity="0.36"/>
<polygon points="101.8,171.0 81.8,145.1 -37.3,204.3 29.3,264.2" fill="url(#topA)" opacity="0.96"/>
<polygon points="81.8,145.1 -37.3,204.3 -4.0,234.3" fill="#210249" opacity="0.16"/>
<polyline points="101.8,171.0 81.8,145.1 -37.3,204.3" fill="none" stroke="#efe9ff" stroke-width="0.65" opacity="0.36"/>
<polygon points="84.5,141.1 80.2,118.2 -32.9,118.9 -14.2,168.3" fill="url(#topC)" opacity="0.96"/>
<polygon points="84.5,141.1 82.5,130.8 -23.2,144.6 -14.2,168.3" fill="#ffffff" opacity="0.16"/>
<polyline points="84.5,141.1 80.2,118.2 -32.9,118.9" fill="none" stroke="#efe9ff" stroke-width="0.65" opacity="0.36"/>
<polygon points="76.0,111.6 78.0,95.5 2.8,79.0 3.3,104.3" fill="url(#topB)" opacity="0.96"/>
<polygon points="78.0,95.5 2.8,79.0 3.0,91.6" fill="#210249" opacity="0.16"/>
<polyline points="76.0,111.6 78.0,95.5 2.8,79.0" fill="none" stroke="#efe9ff" stroke-width="0.65" opacity="0.36"/>
</g>
<g filter="url(#deepShadow)">
<polygon points="159.9,289.9 103.6,282.7 119.6,302.7 175.9,309.9" fill="#26025a" opacity="0.72"/>
<polygon points="127.4,200.0 103.6,282.7 119.6,302.7 136.2,211.0" fill="#390a87" opacity="0.45"/>
<polygon points="155.5,201.0 127.4,200.0 103.6,282.7 159.9,289.9" fill="url(#chunk1)" opacity="0.98"/>
<polygon points="155.5,201.0 127.4,200.0 115.5,241.3 157.7,245.4" fill="#ffffff" opacity="0.13"/>
<line x1="155.5" y1="201.0" x2="159.9" y2="289.9" stroke="#f8f5ff" stroke-width="1.1" opacity="0.42"/>
<polygon points="237.0,277.2 189.6,306.8 202.6,324.8 250.0,295.2" fill="#26025a" opacity="0.72"/>
<polygon points="170.3,205.6 189.6,306.8 202.6,324.8 177.5,215.5" fill="#390a87" opacity="0.45"/>
<polygon points="193.9,194.8 170.3,205.6 189.6,306.8 237.0,277.2" fill="url(#chunk2)" opacity="0.98"/>
<polygon points="193.9,194.8 170.3,205.6 179.9,256.2 215.4,236.0" fill="#ffffff" opacity="0.13"/>
<line x1="193.9" y1="194.8" x2="237.0" y2="277.2" stroke="#f8f5ff" stroke-width="1.1" opacity="0.42"/>
<polygon points="54.1,279.3 -18.2,250.0 -3.2,270.0 69.1,299.3" fill="#26025a" opacity="0.72"/>
<polygon points="83.1,168.4 -18.2,250.0 -3.2,270.0 91.3,179.4" fill="#390a87" opacity="0.45"/>
<polygon points="107.9,186.8 83.1,168.4 -18.2,250.0 54.1,279.3" fill="url(#chunk3)" opacity="0.98"/>
<polygon points="107.9,186.8 83.1,168.4 32.5,209.2 81.0,233.0" fill="#ffffff" opacity="0.13"/>
<line x1="107.9" y1="186.8" x2="54.1" y2="279.3" stroke="#f8f5ff" stroke-width="1.1" opacity="0.42"/>
<polygon points="-17.9,224.7 -60.8,160.6 -43.8,178.6 -0.9,242.7" fill="#26025a" opacity="0.72"/>
<polygon points="68.9,131.1 -60.8,160.6 -43.8,178.6 78.3,141.0" fill="#390a87" opacity="0.45"/>
<polygon points="82.8,157.5 68.9,131.1 -60.8,160.6 -17.9,224.7" fill="url(#chunk1)" opacity="0.98"/>
<polygon points="82.8,157.5 68.9,131.1 4.1,145.9 32.4,191.1" fill="#ffffff" opacity="0.13"/>
<line x1="82.8" y1="157.5" x2="-17.9" y2="224.7" stroke="#f8f5ff" stroke-width="1.1" opacity="0.42"/>
<polygon points="324.8,175.8 306.5,226.3 319.5,243.3 337.8,192.8" fill="#26025a" opacity="0.72"/>
<polygon points="225.1,166.6 306.5,226.3 319.5,243.3 232.2,175.9" fill="#390a87" opacity="0.45"/>
<polygon points="234.3,143.8 225.1,166.6 306.5,226.3 324.8,175.8" fill="url(#chunk2)" opacity="0.98"/>
<polygon points="234.3,143.8 225.1,166.6 265.8,196.4 279.5,159.8" fill="#ffffff" opacity="0.13"/>
<line x1="234.3" y1="143.8" x2="324.8" y2="175.8" stroke="#f8f5ff" stroke-width="1.1" opacity="0.42"/>
<polygon points="6.8,50.2 18.5,-7.1 30.5,8.9 18.8,66.2" fill="#26025a" opacity="0.72"/>
<polygon points="89.3,54.8 18.5,-7.1 30.5,8.9 95.9,63.6" fill="#390a87" opacity="0.45"/>
<polygon points="77.3,78.8 89.3,54.8 18.5,-7.1 6.8,50.2" fill="url(#chunk3)" opacity="0.98"/>
<polygon points="77.3,78.8 89.3,54.8 53.9,23.9 42.0,64.5" fill="#ffffff" opacity="0.13"/>
<line x1="77.3" y1="78.8" x2="6.8" y2="50.2" stroke="#f8f5ff" stroke-width="1.1" opacity="0.42"/>
<polygon points="87.0,-83.9 144.9,-104.8 155.9,-90.8 98.0,-69.9" fill="#26025a" opacity="0.72"/>
<polygon points="151.1,29.1 144.9,-104.8 155.9,-90.8 157.1,36.8" fill="#390a87" opacity="0.45"/>
<polygon points="129.0,36.0 151.1,29.1 144.9,-104.8 87.0,-83.9" fill="url(#chunk2)" opacity="0.98"/>
<polygon points="129.0,36.0 151.1,29.1 148.0,-37.9 108.0,-24.0" fill="#ffffff" opacity="0.13"/>
<line x1="129.0" y1="36.0" x2="87.0" y2="-83.9" stroke="#f8f5ff" stroke-width="1.1" opacity="0.42"/>
</g>
<g stroke-linecap="round">
<line x1="96.4" y1="105.9" x2="-15.8" y2="104.1" stroke="#130026" stroke-width="1.0" opacity="0.55" />
<polygon points="79.2,99.8 17.1,83.9 -2.5,91.0" fill="#f5f1ff" opacity="0.23"/>
<line x1="96.0" y1="88.4" x2="-33.6" y2="41.0" stroke="#ffffff" stroke-width="1.55" opacity="0.45" />
<line x1="101.2" y1="70.2" x2="17.2" y2="2.2" stroke="#3a0d80" stroke-width="2.1" opacity="0.38" />
<line x1="110.1" y1="54.7" x2="35.3" y2="-56.6" stroke="#130026" stroke-width="1.0" opacity="0.55" />
<line x1="133.2" y1="58.9" x2="100.8" y2="-61.0" stroke="#ffffff" stroke-width="1.55" opacity="0.45" />
<line x1="147.4" y1="50.3" x2="120.7" y2="-97.4" stroke="#3a0d80" stroke-width="2.1" opacity="0.38" />
<polygon points="149.8,32.1 150.8,-70.0 136.5,-87.2" fill="#f5f1ff" opacity="0.23"/>
<line x1="165.8" y1="46.0" x2="183.4" y2="-72.7" stroke="#130026" stroke-width="1.0" opacity="0.55" />
<line x1="189.4" y1="49.2" x2="263.5" y2="-76.7" stroke="#ffffff" stroke-width="1.55" opacity="0.45" />
<line x1="195.0" y1="72.0" x2="298.2" y2="-16.8" stroke="#3a0d80" stroke-width="2.1" opacity="0.38" />
<line x1="210.6" y1="85.4" x2="348.9" y2="0.5" stroke="#130026" stroke-width="1.0" opacity="0.55" />
<line x1="221.5" y1="104.7" x2="351.5" y2="81.7" stroke="#ffffff" stroke-width="1.55" opacity="0.45" />
<polygon points="239.8,107.0 323.9,107.1 341.0,93.3" fill="#f5f1ff" opacity="0.23"/>
<line x1="225.1" y1="129.4" x2="324.5" y2="152.4" stroke="#3a0d80" stroke-width="2.1" opacity="0.38" />
<line x1="203.7" y1="142.9" x2="326.8" y2="225.2" stroke="#130026" stroke-width="1.0" opacity="0.55" />
<line x1="194.5" y1="161.3" x2="260.4" y2="259.4" stroke="#ffffff" stroke-width="1.55" opacity="0.45" />
<line x1="179.5" y1="176.0" x2="243.6" y2="305.1" stroke="#3a0d80" stroke-width="2.1" opacity="0.38" />
<line x1="156.5" y1="186.0" x2="163.8" y2="299.7" stroke="#130026" stroke-width="1.0" opacity="0.55" />
<polygon points="152.4,204.0 145.8,269.8 157.1,288.0" fill="#f5f1ff" opacity="0.23"/>
<line x1="135.1" y1="167.8" x2="79.4" y2="317.9" stroke="#ffffff" stroke-width="1.55" opacity="0.45" />
<line x1="115.2" y1="162.6" x2="27.4" y2="258.7" stroke="#3a0d80" stroke-width="2.1" opacity="0.38" />
<line x1="95.7" y1="148.0" x2="-29.5" y2="241.5" stroke="#130026" stroke-width="1.0" opacity="0.55" />
<line x1="81.9" y1="124.4" x2="-41.3" y2="151.0" stroke="#ffffff" stroke-width="1.55" opacity="0.45" />
</g>
<g filter="url(#smallShadow)">
<polygon points="29.0,71.0 48.0,66.0 62.0,80.0 44.0,91.0" fill="url(#topA)" opacity="0.76"/>
<polyline points="29.0,71.0 48.0,66.0 62.0,80.0" fill="none" stroke="#ffffff" stroke-width="0.8" opacity="0.35"/>
<polygon points="58.0,121.0 86.0,117.0 94.0,132.0 68.0,139.0" fill="url(#topB)" opacity="0.76"/>
<polyline points="58.0,121.0 86.0,117.0 94.0,132.0" fill="none" stroke="#ffffff" stroke-width="0.8" opacity="0.35"/>
<polygon points="15.0,158.0 49.0,151.0 48.0,170.0 12.0,181.0" fill="url(#topC)" opacity="0.76"/>
<polyline points="15.0,158.0 49.0,151.0 48.0,170.0" fill="none" stroke="#ffffff" stroke-width="0.8" opacity="0.35"/>
<polygon points="243.0,55.0 271.0,46.0 282.0,60.0 255.0,70.0" fill="url(#topA)" opacity="0.76"/>
<polyline points="243.0,55.0 271.0,46.0 282.0,60.0" fill="none" stroke="#ffffff" stroke-width="0.8" opacity="0.35"/>
<polygon points="232.0,107.0 279.0,99.0 282.0,120.0 238.0,127.0" fill="url(#topB)" opacity="0.76"/>
<polyline points="232.0,107.0 279.0,99.0 282.0,120.0" fill="none" stroke="#ffffff" stroke-width="0.8" opacity="0.35"/>
<polygon points="227.0,171.0 269.0,183.0 260.0,202.0 222.0,190.0" fill="url(#topC)" opacity="0.76"/>
<polyline points="227.0,171.0 269.0,183.0 260.0,202.0" fill="none" stroke="#ffffff" stroke-width="0.8" opacity="0.35"/>
<polygon points="91.0,21.0 115.0,14.0 120.0,32.0 97.0,41.0" fill="url(#topA)" opacity="0.76"/>
<polyline points="91.0,21.0 115.0,14.0 120.0,32.0" fill="none" stroke="#ffffff" stroke-width="0.8" opacity="0.35"/>
<polygon points="177.0,13.0 206.0,10.0 201.0,28.0 178.0,34.0" fill="url(#topB)" opacity="0.76"/>
<polyline points="177.0,13.0 206.0,10.0 201.0,28.0" fill="none" stroke="#ffffff" stroke-width="0.8" opacity="0.35"/>
<polygon points="107.0,233.0 128.0,217.0 142.0,234.0 123.0,252.0" fill="url(#topC)" opacity="0.76"/>
<polyline points="107.0,233.0 128.0,217.0 142.0,234.0" fill="none" stroke="#ffffff" stroke-width="0.8" opacity="0.35"/>
</g>
<circle cx="154" cy="113" r="77" fill="#180234" opacity="0.54"/>
<circle cx="154" cy="113" r="70" fill="#310767" opacity="0.54"/>
<path d="M84 132 C105 180 188 195 229 135 C203 180 117 181 84 132Z" fill="#120025" opacity="0.38" filter="url(#softBlur)"/>
<circle cx="154" cy="113" r="67" fill="none" stroke="#8f68e5" stroke-width="5" opacity="0.26"/>
<ellipse cx="159" cy="126" rx="76" ry="70" fill="#000000" opacity="0.24" filter="url(#softBlur)"/>
<circle cx="154" cy="113" r="68" fill="url(#rim)" filter="url(#deepShadow)"/>
<circle cx="154" cy="113" r="62.5" fill="#27202e" opacity="0.46"/>
<circle cx="154" cy="113" r="59" fill="url(#orb)"/>
<g clip-path="url(#orbClip)">
<ellipse cx="154" cy="143" rx="66" ry="40" fill="url(#orbLower)"/>
<path d="M95 127 C119 146 181 148 213 126 L213 178 L95 178 Z" fill="#454b4d" opacity="0.34"/>
<path d="M105 158 C135 171 173 171 204 155" fill="none" stroke="#312b37" stroke-width="11" opacity="0.18"/>
<ellipse cx="132" cy="85" rx="41" ry="24" transform="rotate(-24 132 85)" fill="#ffffff" opacity="0.55"/>
<ellipse cx="120" cy="72" rx="19" ry="10" transform="rotate(-20 120 72)" fill="#ffffff" opacity="0.36"/>
<path d="M96 112 C103 72 130 52 168 56" fill="none" stroke="#ffffff" stroke-width="2.2" opacity="0.52"/>
<path d="M184 152 C174 166 136 170 113 151" fill="none" stroke="#ffffff" stroke-width="1.0" opacity="0.16"/>
</g>
<circle cx="154" cy="113" r="59" fill="none" stroke="url(#rimLight)" stroke-width="2.2" opacity="0.8"/>
<path d="M94 109 A60 60 0 0 1 153 54" fill="none" stroke="#ffffff" stroke-width="2.4" opacity="0.55"/>
<path d="M211 119 A58 58 0 0 1 158 171" fill="none" stroke="#110b18" stroke-width="2.2" opacity="0.35"/>
<circle cx="113" cy="71" r="3.7" fill="#ffffff" opacity="0.86"/>
<g stroke-linecap="round">
<line x1="84.0" y1="181.0" x2="106.0" y2="159.0" stroke="#ffffff" stroke-width="1.0" opacity="0.33" />
<line x1="204.0" y1="171.0" x2="219.0" y2="143.0" stroke="#ffffff" stroke-width="1.0" opacity="0.33" />
<line x1="142.0" y1="179.0" x2="142.0" y2="160.0" stroke="#ffffff" stroke-width="1.0" opacity="0.33" />
<line x1="165.0" y1="177.0" x2="169.0" y2="158.0" stroke="#ffffff" stroke-width="1.0" opacity="0.33" />
<line x1="91.0" y1="54.0" x2="114.0" y2="71.0" stroke="#ffffff" stroke-width="1.0" opacity="0.33" />
</g>
<rect width="300" height="300" fill="none" stroke="#160234" stroke-width="7" opacity="0.16"/>
</g>
</svg>