<?xml version="1.0" encoding="UTF-8"?>
<svg xmlns="http://www.w3.org/2000/svg" viewBox="0 0 1024 1024" width="1024" height="1024" role="img" aria-labelledby="title desc">
<title id="title">Backlog Realme UI style app icon</title>
<desc id="desc">Original Realme UI inspired mobile launcher icon for Backlog.</desc>

<defs>
  <clipPath id="realmeSquircle"><rect x="0" y="0" width="1024" height="1024" rx="255" ry="255"/></clipPath>
  <linearGradient id="bg" x1="122" y1="64" x2="912" y2="938" gradientUnits="userSpaceOnUse">
    <stop offset="0" stop-color="#38E6FF"/>
    <stop offset="0.46" stop-color="#1B95FF"/>
    <stop offset="1" stop-color="#6258F8"/>
  </linearGradient>
  <radialGradient id="cornerGlow" cx="23%" cy="14%" r="70%">
    <stop offset="0" stop-color="#FFFFFF" stop-opacity="0.65"/>
    <stop offset="0.38" stop-color="#FFFFFF" stop-opacity="0.20"/>
    <stop offset="1" stop-color="#FFFFFF" stop-opacity="0"/>
  </radialGradient>
  <radialGradient id="bottomGlow" cx="76%" cy="86%" r="58%">
    <stop offset="0" stop-color="#000000" stop-opacity="0.17"/>
    <stop offset="0.55" stop-color="#000000" stop-opacity="0.08"/>
    <stop offset="1" stop-color="#000000" stop-opacity="0"/>
  </radialGradient>
  <linearGradient id="surface" x1="268" y1="186" x2="760" y2="826" gradientUnits="userSpaceOnUse">
    <stop offset="0" stop-color="#EFFFFF"/>
    <stop offset="0.50" stop-color="#FFFFFF" stop-opacity="0.94"/>
    <stop offset="1" stop-color="#BFF8FF"/>
  </linearGradient>
  <linearGradient id="surfaceLayer" x1="220" y1="166" x2="780" y2="820" gradientUnits="userSpaceOnUse">
    <stop offset="0" stop-color="#FFFFFF" stop-opacity="0.88"/>
    <stop offset="1" stop-color="#BFF8FF" stop-opacity="0.76"/>
  </linearGradient>
  <linearGradient id="realmeAccent" x1="270" y1="216" x2="778" y2="790" gradientUnits="userSpaceOnUse">
    <stop offset="0" stop-color="#FFFFFF"/>
    <stop offset="0.50" stop-color="#2CD4FF"/>
    <stop offset="1" stop-color="#7A5CFF"/>
  </linearGradient>
  <filter id="glyphShadow" x="-24%" y="-24%" width="148%" height="160%" color-interpolation-filters="sRGB">
    <feDropShadow dx="0" dy="30" stdDeviation="30" flood-color="#07111F" flood-opacity="0.22"/>
    <feDropShadow dx="0" dy="4" stdDeviation="8" flood-color="#FFFFFF" flood-opacity="0.16"/>
  </filter>
  <filter id="baseInset" x="-10%" y="-10%" width="120%" height="120%" color-interpolation-filters="sRGB">
    <feGaussianBlur stdDeviation="18" result="blur"/>
    <feComposite in="SourceGraphic" in2="blur" operator="over"/>
  </filter>
</defs>
<g clip-path="url(#realmeSquircle)">
  <rect x="0" y="0" width="1024" height="1024" rx="255" ry="255" fill="url(#bg)"/>
  <circle cx="178" cy="104" r="420" fill="url(#cornerGlow)"/>
  <circle cx="852" cy="842" r="382" fill="url(#bottomGlow)"/>
  <path d="M-44 752C132 674 242 785 410 700c186-93 259-273 464-252 92 9 153 47 198 92v520H-44z" fill="#FFFFFF" opacity="0.115"/>
  <path d="M790 92c74 46 124 106 151 188" fill="none" stroke="#FFFFFF" stroke-opacity="0.33" stroke-width="38" stroke-linecap="round"/>
  <path d="M84 815c92 58 202 93 326 104" fill="none" stroke="#FFFFFF" stroke-opacity="0.08" stroke-width="80" stroke-linecap="round"/>
</g>
<rect x="2" y="2" width="1020" height="1020" rx="255" ry="255" fill="none" stroke="#FFFFFF" stroke-opacity="0.30" stroke-width="4"/>
<g filter="url(#glyphShadow)">
<g>
  <rect x="300" y="260" width="432" height="210" rx="58" fill="url(#surfaceLayer)" opacity=".52" transform="rotate(-11 516 365)" stroke="#0F172A" stroke-opacity=".10" stroke-width="8"/>
  <rect x="276" y="330" width="486" height="246" rx="64" fill="url(#surfaceLayer)" opacity=".72" transform="rotate(-5 519 453)" stroke="#0F172A" stroke-opacity=".12" stroke-width="8"/>
  <rect x="246" y="430" width="532" height="318" rx="76" fill="url(#surface)" stroke="#0F172A" stroke-opacity=".15" stroke-width="10"/>
  <circle cx="338" cy="520" r="24" fill="url(#realmeAccent)"/>
  <rect x="386" y="501" width="258" height="28" rx="14" fill="#0F172A" opacity=".20"/>
  <rect x="386" y="546" width="328" height="24" rx="12" fill="#0F172A" opacity=".13"/>
  <circle cx="338" cy="628" r="24" fill="url(#realmeAccent)" opacity=".78"/>
  <rect x="386" y="611" width="300" height="28" rx="14" fill="#0F172A" opacity=".20"/>
  <rect x="386" y="656" width="220" height="24" rx="12" fill="#0F172A" opacity=".13"/>
  <path d="M698 626c36 0 66 30 66 66s-30 66-66 66-66-30-66-66 30-66 66-66z" fill="url(#realmeAccent)"/>
  <path d="M677 688h42l-17-17c-7-7 3-19 11-11l40 40-40 40c-8 8-19-4-11-11l17-17h-42c-10 0-10-24 0-24z" fill="#FFFFFF" opacity=".95"/>
</g></g>
</svg>
