<?xml version="1.0" encoding="UTF-8"?>
<svg xmlns="http://www.w3.org/2000/svg" viewBox="0 0 1024 1024" width="1024" height="1024" role="img" aria-labelledby="title desc">
<title id="title">Squid Realme UI style app icon</title>
<desc id="desc">Original Realme UI inspired mobile launcher icon for Squid.</desc>

<defs>
  <clipPath id="realmeSquircle"><rect x="0" y="0" width="1024" height="1024" rx="255" ry="255"/></clipPath>
  <linearGradient id="bg" x1="122" y1="64" x2="912" y2="938" gradientUnits="userSpaceOnUse">
    <stop offset="0" stop-color="#B46CFF"/>
    <stop offset="0.46" stop-color="#25CCEF"/>
    <stop offset="1" stop-color="#15A582"/>
  </linearGradient>
  <radialGradient id="cornerGlow" cx="23%" cy="14%" r="70%">
    <stop offset="0" stop-color="#FFFFFF" stop-opacity="0.65"/>
    <stop offset="0.38" stop-color="#FFFFFF" stop-opacity="0.20"/>
    <stop offset="1" stop-color="#FFFFFF" stop-opacity="0"/>
  </radialGradient>
  <radialGradient id="bottomGlow" cx="76%" cy="86%" r="58%">
    <stop offset="0" stop-color="#000000" stop-opacity="0.17"/>
    <stop offset="0.55" stop-color="#000000" stop-opacity="0.08"/>
    <stop offset="1" stop-color="#000000" stop-opacity="0"/>
  </radialGradient>
  <linearGradient id="surface" x1="268" y1="186" x2="760" y2="826" gradientUnits="userSpaceOnUse">
    <stop offset="0" stop-color="#F6EEFF"/>
    <stop offset="0.50" stop-color="#FFFFFF" stop-opacity="0.94"/>
    <stop offset="1" stop-color="#E6D8FF"/>
  </linearGradient>
  <linearGradient id="surfaceLayer" x1="220" y1="166" x2="780" y2="820" gradientUnits="userSpaceOnUse">
    <stop offset="0" stop-color="#FFFFFF" stop-opacity="0.88"/>
    <stop offset="1" stop-color="#E6D8FF" stop-opacity="0.76"/>
  </linearGradient>
  <linearGradient id="realmeAccent" x1="270" y1="216" x2="778" y2="790" gradientUnits="userSpaceOnUse">
    <stop offset="0" stop-color="#FFFFFF"/>
    <stop offset="0.50" stop-color="#B071FF"/>
    <stop offset="1" stop-color="#21D4C7"/>
  </linearGradient>
  <filter id="glyphShadow" x="-24%" y="-24%" width="148%" height="160%" color-interpolation-filters="sRGB">
    <feDropShadow dx="0" dy="30" stdDeviation="30" flood-color="#07111F" flood-opacity="0.22"/>
    <feDropShadow dx="0" dy="4" stdDeviation="8" flood-color="#FFFFFF" flood-opacity="0.16"/>
  </filter>
  <filter id="baseInset" x="-10%" y="-10%" width="120%" height="120%" color-interpolation-filters="sRGB">
    <feGaussianBlur stdDeviation="18" result="blur"/>
    <feComposite in="SourceGraphic" in2="blur" operator="over"/>
  </filter>
</defs>
<g clip-path="url(#realmeSquircle)">
  <rect x="0" y="0" width="1024" height="1024" rx="255" ry="255" fill="url(#bg)"/>
  <circle cx="178" cy="104" r="420" fill="url(#cornerGlow)"/>
  <circle cx="852" cy="842" r="382" fill="url(#bottomGlow)"/>
  <path d="M-44 752C132 674 242 785 410 700c186-93 259-273 464-252 92 9 153 47 198 92v520H-44z" fill="#FFFFFF" opacity="0.115"/>
  <path d="M790 92c74 46 124 106 151 188" fill="none" stroke="#FFFFFF" stroke-opacity="0.33" stroke-width="38" stroke-linecap="round"/>
  <path d="M84 815c92 58 202 93 326 104" fill="none" stroke="#FFFFFF" stroke-opacity="0.08" stroke-width="80" stroke-linecap="round"/>
</g>
<rect x="2" y="2" width="1020" height="1020" rx="255" ry="255" fill="none" stroke="#FFFFFF" stroke-opacity="0.30" stroke-width="4"/>
<g filter="url(#glyphShadow)">
<g>
  <path d="M512 190c112 0 202 84 202 188 0 85-58 150-118 184 15 41 62 68 99 74-78 48-164 16-202-36-44 56-126 84-202 36 40-6 82-34 98-75-61-35-101-97-101-183 0-104 112-188 224-188z" fill="url(#surface)" stroke="#0F172A" stroke-opacity=".15" stroke-width="10"/>
  <circle cx="434" cy="384" r="38" fill="#0F172A" opacity=".24"/>
  <circle cx="590" cy="384" r="38" fill="#0F172A" opacity=".24"/>
  <circle cx="448" cy="370" r="12" fill="#FFFFFF" opacity=".82"/>
  <circle cx="604" cy="370" r="12" fill="#FFFFFF" opacity=".82"/>
  <path d="M386 624c-32 59-22 103 33 132M468 620c-9 70 9 109 64 128M556 620c9 70-9 109-64 128M638 624c32 59 22 103-33 132" stroke="url(#realmeAccent)" stroke-width="45" stroke-linecap="round" fill="none"/>
  <path d="M452 482c28 22 92 22 120 0" stroke="url(#realmeAccent)" stroke-width="26" stroke-linecap="round" fill="none" opacity=".95"/>
</g></g>
</svg>
